<svg id="svg" class="question" version="1.1" xmlns="http://www.w3.org/2000/svg" xmlns:xlink="http://www.w3.org/1999/xlink" width="400" height="577.7777777777778" viewBox="0, 0, 400,577.7777777777778"><g id="svgg" class="inner"><path id="path0" d="M71.012 25.700 C 70.848 26.085,70.419 26.406,70.057 26.413 C 66.897 26.474,68.471 32.800,71.646 32.800 C 73.008 32.800,73.552 32.047,72.661 31.395 C 72.214 31.068,71.987 30.278,71.960 28.956 C 71.907 26.353,71.431 24.717,71.012 25.700 M306.800 29.984 C 306.800 32.380,309.610 33.599,311.500 32.023 C 312.610 31.097,312.634 30.800,311.600 30.800 C 311.160 30.800,310.800 30.620,310.800 30.400 C 310.800 30.180,310.350 30.000,309.800 30.000 C 309.178 30.000,308.800 29.773,308.800 29.400 C 308.800 29.027,308.422 28.800,307.800 28.800 C 306.958 28.800,306.800 28.988,306.800 29.984 M129.471 55.623 C 129.807 56.295,129.990 57.195,129.878 57.623 C 129.700 58.306,129.889 58.400,131.437 58.400 L 133.200 58.400 133.200 56.400 L 133.200 54.400 131.031 54.400 L 128.861 54.400 129.471 55.623 M139.539 54.927 C 139.779 55.216,140.020 56.026,140.073 56.727 C 140.159 57.852,140.800 58.623,140.800 57.600 C 140.800 57.380,141.539 57.200,142.443 57.200 C 143.776 57.200,144.040 57.081,143.843 56.567 C 143.709 56.219,143.600 55.589,143.600 55.167 C 143.600 54.502,143.301 54.400,141.351 54.400 C 139.537 54.400,139.186 54.502,139.539 54.927 M102.589 58.627 C 101.495 59.851,100.540 61.021,100.467 61.227 C 100.287 61.731,103.088 61.706,103.400 61.200 C 103.536 60.980,104.177 60.800,104.824 60.800 C 105.471 60.800,106.000 60.620,106.000 60.400 C 106.000 60.180,105.820 60.000,105.600 60.000 C 105.380 60.000,105.200 59.190,105.200 58.200 C 105.200 55.901,104.994 55.934,102.589 58.627 M228.700 59.876 C 227.491 60.192,227.939 60.808,229.300 60.702 C 230.451 60.612,230.615 60.726,230.727 61.700 C 230.816 62.480,231.080 62.800,231.632 62.800 C 232.060 62.800,232.760 63.018,233.187 63.285 C 233.614 63.552,234.091 63.642,234.247 63.487 C 234.855 62.878,233.529 61.129,231.900 60.389 C 230.159 59.599,229.911 59.559,228.700 59.876 M0.000 95.000 C 0.000 95.330,0.270 95.600,0.600 95.600 C 0.930 95.600,1.200 95.780,1.200 96.000 C 1.200 96.860,2.318 96.343,2.498 95.400 C 2.671 94.494,2.563 94.400,1.345 94.400 C 0.416 94.400,0.000 94.586,0.000 95.000 M0.900 109.344 C -0.731 110.152,-0.399 112.980,1.288 112.642 C 1.996 112.501,2.704 112.253,2.862 112.093 C 3.160 111.789,2.358 108.763,2.002 108.849 C 1.891 108.876,1.395 109.099,0.900 109.344 M287.600 145.000 C 287.600 145.330,287.780 145.600,288.000 145.600 C 288.220 145.600,288.400 145.330,288.400 145.000 C 288.400 144.670,288.220 144.400,288.000 144.400 C 287.780 144.400,287.600 144.670,287.600 145.000 M221.200 236.400 C 221.200 236.620,220.750 236.800,220.200 236.800 C 219.650 236.800,219.200 236.959,219.200 237.153 C 219.200 237.348,219.650 237.593,220.200 237.698 C 220.871 237.826,221.200 237.710,221.200 237.345 C 221.200 237.045,221.560 236.800,222.000 236.800 C 222.440 236.800,222.800 236.620,222.800 236.400 C 222.800 236.180,222.440 236.000,222.000 236.000 C 221.560 236.000,221.200 236.180,221.200 236.400 M359.914 260.500 C 359.562 260.775,359.158 261.630,359.014 262.400 L 358.754 263.800 359.568 262.800 C 360.016 262.250,360.386 261.575,360.391 261.300 C 360.396 261.025,360.580 260.800,360.800 260.800 C 361.020 260.800,361.200 260.620,361.200 260.400 C 361.200 259.857,360.685 259.897,359.914 260.500 M142.274 268.811 C 140.285 270.826,140.680 272.202,143.122 271.762 C 145.055 271.414,145.664 270.918,145.206 270.066 C 145.009 269.700,144.744 268.905,144.617 268.300 C 144.321 266.896,144.123 266.939,142.274 268.811 M150.558 378.760 C 147.224 380.794,146.474 386.088,149.033 389.532 C 149.497 390.157,150.800 388.573,150.800 387.386 C 150.800 386.624,150.980 386.000,151.200 386.000 C 151.813 386.000,151.684 383.207,151.060 382.968 C 150.107 382.602,151.109 379.310,152.261 379.020 C 152.777 378.891,153.200 378.608,153.200 378.392 C 153.200 377.761,151.900 377.942,150.558 378.760 M141.200 436.400 C 141.200 436.620,141.931 436.800,142.824 436.800 C 143.804 436.800,144.349 436.642,144.200 436.400 C 144.064 436.180,143.333 436.000,142.576 436.000 C 141.819 436.000,141.200 436.180,141.200 436.400 M163.200 470.238 C 163.200 470.775,163.529 470.832,165.300 470.597 C 168.383 470.188,168.607 469.600,165.680 469.600 C 163.677 469.600,163.200 469.723,163.200 470.238 M61.300 538.539 C 59.669 539.074,59.494 540.134,61.100 539.756 C 62.924 539.327,63.003 539.359,62.925 540.500 C 62.875 541.225,63.045 541.600,63.425 541.600 C 63.741 541.600,64.000 541.780,64.000 542.000 C 64.000 542.220,64.360 542.400,64.800 542.400 C 65.240 542.400,65.600 542.580,65.600 542.800 C 65.600 543.020,65.960 543.200,66.400 543.200 C 67.316 543.200,67.471 541.966,66.784 540.159 C 65.993 538.078,64.263 537.567,61.300 538.539 " stroke="none" fill="#111111" fill-rule="evenodd"></path><path id="path1" d="M159.300 0.287 C 157.485 0.367,156.000 0.605,156.000 0.816 C 156.000 1.027,154.914 1.200,153.587 1.200 C 151.812 1.200,151.114 1.358,150.945 1.800 C 150.774 2.246,150.064 2.400,148.181 2.400 C 146.787 2.400,145.536 2.580,145.400 2.800 C 145.264 3.020,143.993 3.200,142.576 3.200 C 141.125 3.200,140.000 3.375,140.000 3.600 C 140.000 3.820,139.021 4.000,137.824 4.000 C 136.627 4.000,135.536 4.180,135.400 4.400 C 135.264 4.620,134.438 4.800,133.564 4.800 C 132.520 4.800,131.896 5.006,131.745 5.400 C 131.613 5.742,131.017 6.000,130.357 6.000 C 129.721 6.000,129.200 6.180,129.200 6.400 C 129.200 6.620,128.840 6.800,128.400 6.800 C 127.960 6.800,127.600 6.980,127.600 7.200 C 127.600 7.420,127.240 7.600,126.800 7.600 C 126.360 7.600,126.000 7.780,126.000 8.000 C 126.000 8.220,125.651 8.400,125.224 8.400 C 124.797 8.400,124.336 8.580,124.200 8.800 C 124.064 9.020,123.603 9.200,123.176 9.200 C 122.749 9.200,122.400 9.470,122.400 9.800 C 122.400 10.173,122.022 10.400,121.400 10.400 C 120.850 10.400,120.400 10.580,120.400 10.800 C 120.400 11.020,119.860 11.200,119.200 11.200 C 118.540 11.200,118.000 11.380,118.000 11.600 C 118.000 11.820,117.685 12.003,117.300 12.006 C 116.183 12.016,113.442 13.074,113.281 13.558 C 113.200 13.801,112.608 14.000,111.967 14.000 C 111.325 14.000,110.800 14.180,110.800 14.400 C 110.800 14.620,109.990 14.800,109.000 14.800 C 108.010 14.800,107.200 14.980,107.200 15.200 C 107.200 15.420,106.671 15.600,106.024 15.600 C 105.377 15.600,104.736 15.780,104.600 16.000 C 104.464 16.220,103.823 16.400,103.176 16.400 C 102.529 16.400,102.000 16.580,102.000 16.800 C 102.000 17.020,101.383 17.200,100.629 17.200 C 99.874 17.200,98.987 17.470,98.657 17.800 C 98.327 18.130,97.425 18.400,96.652 18.400 C 95.879 18.400,95.136 18.580,95.000 18.800 C 94.864 19.020,94.144 19.200,93.400 19.200 C 92.656 19.200,91.936 19.380,91.800 19.600 C 91.664 19.820,90.764 20.000,89.800 20.000 C 88.836 20.000,87.936 20.180,87.800 20.400 C 87.664 20.620,86.838 20.800,85.964 20.800 C 84.920 20.800,84.296 21.006,84.145 21.400 C 83.976 21.838,83.286 22.000,81.581 22.000 C 80.297 22.000,79.136 22.180,79.000 22.400 C 78.864 22.620,78.133 22.800,77.376 22.800 C 76.619 22.800,76.000 22.980,76.000 23.200 C 76.000 23.420,75.640 23.600,75.200 23.600 C 74.760 23.600,74.400 23.767,74.400 23.972 C 74.400 24.177,73.995 24.402,73.500 24.472 C 72.685 24.588,72.590 24.845,72.497 27.200 C 72.378 30.199,72.787 31.241,73.764 30.430 C 75.363 29.103,76.059 30.632,74.545 32.145 C 72.126 34.565,68.328 33.193,67.769 29.696 C 67.517 28.118,65.600 26.973,65.600 28.400 C 65.600 28.620,65.285 28.803,64.900 28.807 C 64.515 28.811,63.776 29.261,63.258 29.807 C 62.740 30.353,61.975 30.800,61.558 30.800 C 61.141 30.800,60.800 30.980,60.800 31.200 C 60.800 31.420,60.480 31.600,60.088 31.600 C 59.697 31.600,59.117 31.960,58.800 32.400 C 58.483 32.840,57.897 33.200,57.499 33.200 C 57.101 33.200,56.671 33.470,56.545 33.800 C 56.418 34.130,55.974 34.400,55.557 34.400 C 55.141 34.400,54.800 34.580,54.800 34.800 C 54.800 35.020,54.451 35.200,54.024 35.200 C 53.597 35.200,53.136 35.380,53.000 35.600 C 52.864 35.820,52.403 36.000,51.976 36.000 C 51.549 36.000,51.200 36.180,51.200 36.400 C 51.200 36.620,50.921 36.800,50.581 36.800 C 50.240 36.800,49.545 37.250,49.035 37.800 C 48.525 38.350,47.896 38.800,47.636 38.800 C 47.376 38.800,46.757 39.205,46.259 39.700 C 45.762 40.195,44.691 41.050,43.880 41.600 C 43.069 42.150,42.404 42.735,42.403 42.900 C 42.401 43.065,42.130 43.200,41.800 43.200 C 41.470 43.200,41.200 43.336,41.200 43.502 C 41.200 43.669,40.660 44.044,40.000 44.336 C 39.340 44.628,38.800 45.045,38.800 45.262 C 38.800 45.910,37.711 46.800,36.917 46.800 C 36.510 46.800,35.917 47.160,35.600 47.600 C 35.283 48.040,34.703 48.400,34.312 48.400 C 33.920 48.400,33.600 48.580,33.600 48.800 C 33.600 49.020,33.324 49.200,32.987 49.200 C 32.651 49.200,32.271 49.470,32.145 49.800 C 32.018 50.130,31.664 50.400,31.357 50.400 C 31.051 50.400,30.800 50.580,30.800 50.800 C 30.800 51.020,30.440 51.200,30.000 51.200 C 29.560 51.200,29.200 51.380,29.200 51.600 C 29.200 51.820,28.930 52.000,28.600 52.000 C 28.270 52.000,28.000 52.180,28.000 52.400 C 28.000 52.620,27.640 52.800,27.200 52.800 C 26.760 52.800,26.400 53.026,26.400 53.302 C 26.400 53.579,25.815 54.060,25.100 54.372 C 24.385 54.684,23.509 55.268,23.153 55.670 C 22.797 56.071,22.317 56.400,22.085 56.400 C 21.483 56.400,19.206 57.743,19.203 58.100 C 19.201 58.265,18.840 58.400,18.400 58.400 C 17.960 58.400,17.600 58.580,17.600 58.800 C 17.600 59.020,17.412 59.200,17.182 59.200 C 16.639 59.200,14.800 61.039,14.800 61.582 C 14.800 61.812,14.589 62.000,14.331 62.000 C 13.876 62.000,10.400 65.392,10.400 65.836 C 10.400 65.957,10.175 66.308,9.900 66.615 C 8.818 67.821,8.534 68.248,7.980 69.500 C 7.664 70.215,7.269 70.800,7.102 70.800 C 6.936 70.800,6.800 71.160,6.800 71.600 C 6.800 72.040,6.620 72.400,6.400 72.400 C 6.180 72.400,6.000 72.850,6.000 73.400 C 6.000 74.022,5.773 74.400,5.400 74.400 C 5.070 74.400,4.800 74.749,4.800 75.176 C 4.800 75.603,4.620 76.064,4.400 76.200 C 4.180 76.336,4.000 76.977,4.000 77.624 C 4.000 78.271,3.820 78.800,3.600 78.800 C 3.380 78.800,3.200 79.430,3.200 80.200 C 3.200 80.970,3.020 81.600,2.800 81.600 C 2.580 81.600,2.394 82.275,2.387 83.100 C 2.380 83.925,2.110 84.949,1.787 85.376 C 1.464 85.804,1.200 86.623,1.200 87.196 C 1.200 87.770,1.037 88.411,0.837 88.620 C -0.116 89.617,0.156 93.226,1.200 93.441 C 3.135 93.840,3.407 94.196,3.280 96.154 C 3.209 97.253,3.330 98.000,3.580 98.000 C 3.849 98.000,4.000 99.654,4.000 102.600 C 4.000 105.748,3.858 107.200,3.549 107.200 C 2.857 107.200,3.503 110.439,4.315 111.044 C 5.546 111.959,4.436 112.981,2.059 113.121 L 0.000 113.242 0.000 121.009 C -0.000 128.841,0.586 132.000,2.040 132.000 C 2.238 132.000,2.400 132.360,2.400 132.800 C 2.400 133.240,2.546 133.600,2.725 133.600 C 2.904 133.600,3.298 134.230,3.600 135.000 C 3.902 135.770,4.296 136.400,4.475 136.400 C 4.654 136.400,4.800 136.760,4.800 137.200 C 4.800 137.644,5.067 138.000,5.400 138.000 C 5.773 138.000,6.000 138.378,6.000 139.000 C 6.000 139.550,6.180 140.000,6.400 140.000 C 6.620 140.000,6.800 140.360,6.800 140.800 C 6.800 141.240,6.980 141.600,7.200 141.600 C 7.420 141.600,7.600 142.039,7.600 142.576 C 7.600 143.113,7.780 143.664,8.000 143.800 C 8.220 143.936,8.400 144.487,8.400 145.024 C 8.400 145.561,8.580 146.000,8.800 146.000 C 9.020 146.000,9.200 146.366,9.200 146.813 C 9.200 147.259,9.470 147.729,9.800 147.855 C 10.130 147.982,10.400 148.426,10.400 148.843 C 10.400 149.259,10.580 149.600,10.800 149.600 C 11.020 149.600,11.200 150.050,11.200 150.600 C 11.200 151.150,11.380 151.600,11.600 151.600 C 11.820 151.600,12.000 151.960,12.000 152.400 C 12.000 152.840,12.177 153.200,12.392 153.200 C 12.608 153.200,12.898 153.650,13.036 154.200 C 13.174 154.750,13.447 155.200,13.643 155.200 C 13.840 155.200,14.000 155.650,14.000 156.200 C 14.000 156.750,14.180 157.200,14.400 157.200 C 14.620 157.200,14.800 157.639,14.800 158.176 C 14.800 158.713,14.980 159.264,15.200 159.400 C 15.420 159.536,15.600 159.997,15.600 160.424 C 15.600 160.851,15.780 161.200,16.000 161.200 C 16.220 161.200,16.400 161.442,16.400 161.739 C 16.400 162.541,17.602 164.800,18.029 164.800 C 18.233 164.800,18.400 165.149,18.400 165.576 C 18.400 166.003,18.580 166.464,18.800 166.600 C 19.020 166.736,19.200 167.197,19.200 167.624 C 19.200 168.051,19.380 168.400,19.600 168.400 C 19.820 168.400,20.000 168.760,20.000 169.200 C 20.000 169.640,20.251 170.000,20.557 170.000 C 20.864 170.000,21.222 170.280,21.353 170.622 C 21.638 171.363,23.565 170.209,23.587 169.283 C 23.594 168.999,23.960 168.380,24.400 167.908 C 24.840 167.436,25.200 166.723,25.200 166.325 C 25.200 165.926,25.455 165.600,25.766 165.600 C 26.078 165.600,26.572 165.060,26.864 164.400 C 27.156 163.740,27.531 163.200,27.698 163.200 C 27.864 163.200,28.000 162.750,28.000 162.200 C 28.000 161.650,28.180 161.200,28.400 161.200 C 28.620 161.200,28.800 160.840,28.800 160.400 C 28.800 159.960,28.980 159.600,29.200 159.600 C 29.420 159.600,29.600 158.989,29.600 158.243 C 29.600 157.405,29.830 156.797,30.200 156.655 C 30.610 156.498,30.800 155.857,30.800 154.636 C 30.800 153.652,30.980 152.736,31.200 152.600 C 31.453 152.444,31.600 147.663,31.600 139.576 C 31.600 131.325,31.742 126.800,32.000 126.800 C 32.220 126.800,32.400 125.911,32.400 124.824 C 32.400 123.737,32.580 122.736,32.800 122.600 C 33.020 122.464,33.200 121.283,33.200 119.976 C 33.200 118.131,33.334 117.600,33.800 117.600 C 34.293 117.600,34.400 116.889,34.400 113.600 C 34.400 111.200,34.560 109.600,34.800 109.600 C 35.020 109.600,35.200 109.251,35.200 108.824 C 35.200 108.397,35.380 107.936,35.600 107.800 C 35.820 107.664,36.000 107.285,36.000 106.958 C 36.000 106.388,37.710 104.400,38.200 104.400 C 38.897 104.400,40.426 102.313,40.216 101.650 C 39.899 100.651,41.023 99.790,42.449 99.940 C 43.474 100.047,44.800 99.291,44.800 98.600 C 44.800 98.274,45.863 97.200,46.185 97.200 C 46.318 97.200,47.041 96.615,47.792 95.900 C 49.655 94.125,50.311 93.602,50.683 93.591 C 50.857 93.587,51.540 92.933,52.200 92.138 C 52.860 91.344,53.732 90.403,54.138 90.047 C 54.544 89.691,55.797 88.545,56.923 87.500 C 58.049 86.455,59.162 85.600,59.396 85.600 C 59.631 85.600,60.083 85.240,60.400 84.800 C 60.717 84.360,61.297 84.000,61.688 84.000 C 62.080 84.000,62.400 83.820,62.400 83.600 C 62.400 83.380,62.670 83.200,63.000 83.200 C 63.330 83.200,63.600 82.930,63.600 82.600 C 63.600 82.267,63.956 82.000,64.400 82.000 C 64.840 82.000,65.200 81.854,65.200 81.675 C 65.200 81.496,65.830 81.102,66.600 80.800 C 67.370 80.498,68.000 80.104,68.000 79.925 C 68.000 79.746,68.360 79.600,68.800 79.600 C 69.240 79.600,69.600 79.420,69.600 79.200 C 69.600 78.980,70.037 78.800,70.571 78.800 C 71.106 78.800,71.813 78.530,72.143 78.200 C 72.473 77.870,73.026 77.600,73.371 77.600 C 73.717 77.600,74.000 77.420,74.000 77.200 C 74.000 76.980,74.235 76.800,74.521 76.800 C 75.317 76.800,79.200 74.778,79.200 74.364 C 79.200 74.164,79.650 74.000,80.200 74.000 C 80.750 74.000,81.200 73.820,81.200 73.600 C 81.200 73.380,81.566 73.200,82.013 73.200 C 82.848 73.200,85.600 70.755,85.600 70.013 C 85.600 69.786,86.010 69.600,86.512 69.600 C 87.013 69.600,87.683 69.240,88.000 68.800 C 88.317 68.360,88.772 68.000,89.010 68.000 C 89.740 68.000,93.600 65.952,93.600 65.564 C 93.600 65.364,93.968 65.200,94.417 65.200 C 94.866 65.200,95.620 64.840,96.092 64.400 C 96.564 63.960,97.277 63.600,97.675 63.600 C 98.074 63.600,98.400 63.442,98.400 63.250 C 98.400 63.058,98.940 62.792,99.600 62.660 C 100.811 62.418,101.292 61.600,100.224 61.600 C 99.047 61.600,99.288 60.888,101.120 58.953 C 102.154 57.861,103.414 56.467,103.920 55.857 C 105.260 54.242,105.782 54.686,105.920 57.559 L 106.040 60.054 109.720 59.874 C 111.744 59.775,114.300 59.468,115.400 59.192 C 116.500 58.915,119.965 58.615,123.100 58.524 L 128.800 58.359 128.800 57.028 C 128.800 56.297,128.541 55.483,128.224 55.220 C 126.964 54.174,127.973 53.560,130.749 53.683 L 133.400 53.800 133.520 56.100 L 133.640 58.400 136.638 58.400 L 139.636 58.400 139.360 56.900 C 139.209 56.075,138.904 55.283,138.684 55.140 C 137.596 54.435,138.827 53.600,140.955 53.600 C 144.029 53.600,144.400 53.816,144.400 55.605 C 144.400 57.082,144.428 57.112,145.397 56.662 C 145.945 56.408,146.395 56.065,146.397 55.900 C 146.399 55.735,148.200 55.600,150.400 55.600 C 152.800 55.600,154.400 55.760,154.400 56.000 C 154.400 56.220,155.390 56.400,156.600 56.400 C 157.810 56.400,158.800 56.580,158.800 56.800 C 158.800 57.025,159.922 57.200,161.367 57.200 C 163.065 57.200,163.990 57.369,164.100 57.700 C 164.230 58.090,168.933 58.224,185.424 58.310 C 198.461 58.379,206.730 58.570,206.970 58.810 C 207.185 59.025,209.034 59.200,211.080 59.200 C 213.293 59.200,214.800 59.362,214.800 59.600 C 214.800 59.847,216.867 60.000,220.200 60.000 C 223.533 60.000,225.600 60.153,225.600 60.400 C 225.600 60.620,225.780 60.800,226.000 60.800 C 226.220 60.800,226.400 60.551,226.400 60.247 C 226.400 57.502,234.285 59.609,235.024 62.552 C 235.280 63.572,235.371 63.600,238.443 63.600 C 240.281 63.600,241.600 63.767,241.600 64.000 C 241.600 64.220,242.104 64.400,242.720 64.400 C 243.948 64.400,245.992 65.218,245.997 65.711 C 246.002 66.176,249.516 69.600,249.989 69.600 C 250.215 69.600,250.400 69.966,250.400 70.413 C 250.400 71.248,252.845 74.000,253.587 74.000 C 253.814 74.000,254.000 74.185,254.000 74.411 C 254.000 74.947,261.053 82.000,261.589 82.000 C 261.815 82.000,262.000 82.270,262.000 82.600 C 262.000 82.930,262.180 83.200,262.400 83.200 C 262.620 83.200,262.800 83.425,262.801 83.700 C 262.801 83.975,263.341 84.830,264.000 85.600 C 264.659 86.370,265.199 87.135,265.199 87.300 C 265.200 87.465,265.470 87.600,265.800 87.600 C 266.130 87.600,266.400 87.920,266.400 88.312 C 266.400 88.703,266.760 89.283,267.200 89.600 C 267.640 89.917,268.000 90.407,268.000 90.688 C 268.000 90.970,268.180 91.200,268.400 91.200 C 268.620 91.200,268.800 91.445,268.800 91.744 C 268.800 92.043,269.250 92.626,269.800 93.039 C 270.350 93.452,270.800 94.017,270.800 94.295 C 270.800 94.573,270.980 94.800,271.200 94.800 C 271.420 94.800,271.600 95.069,271.600 95.397 C 271.600 96.175,273.193 98.000,273.872 98.000 C 274.162 98.000,274.400 98.198,274.400 98.440 C 274.400 98.681,274.906 99.356,275.525 99.940 C 276.143 100.523,276.767 101.315,276.912 101.700 C 277.057 102.085,277.361 102.400,277.587 102.400 C 277.814 102.400,278.000 102.670,278.000 103.000 C 278.000 103.330,278.180 103.600,278.400 103.600 C 278.620 103.600,278.800 103.960,278.800 104.400 C 278.800 104.840,278.980 105.200,279.200 105.200 C 279.420 105.200,279.600 105.562,279.600 106.005 C 279.600 106.448,279.758 107.123,279.951 107.505 C 280.475 108.542,281.200 110.970,281.200 111.686 C 281.200 112.031,281.470 112.418,281.800 112.545 C 282.223 112.707,282.400 113.368,282.400 114.787 C 282.400 115.894,282.580 116.800,282.800 116.800 C 283.026 116.800,283.200 117.933,283.200 119.400 C 283.200 120.867,283.374 122.000,283.600 122.000 C 283.820 122.000,284.000 122.810,284.000 123.800 C 284.000 124.790,284.180 125.600,284.400 125.600 C 284.620 125.600,284.800 126.416,284.800 127.413 C 284.800 128.655,284.989 129.298,285.400 129.455 C 285.791 129.605,286.000 130.228,286.000 131.243 C 286.000 132.099,286.180 132.800,286.400 132.800 C 286.620 132.800,286.800 133.790,286.800 135.000 C 286.800 136.210,286.980 137.200,287.200 137.200 C 287.426 137.200,287.600 138.333,287.600 139.800 C 287.600 141.808,287.732 142.400,288.182 142.400 C 288.821 142.400,289.439 144.800,289.057 145.797 C 288.929 146.129,288.369 146.400,287.813 146.400 C 286.916 146.400,286.800 146.566,286.800 147.843 C 286.800 149.187,286.870 149.269,287.809 149.034 C 289.062 148.719,289.570 149.688,288.639 150.618 C 288.287 150.970,288.000 151.424,288.000 151.629 C 288.000 151.833,287.730 152.000,287.400 152.000 C 286.940 152.000,286.800 152.508,286.800 154.176 C 286.800 155.373,286.620 156.464,286.400 156.600 C 286.180 156.736,286.000 157.389,286.000 158.052 C 286.000 158.715,285.730 159.527,285.400 159.857 C 285.070 160.187,284.800 160.894,284.800 161.429 C 284.800 161.963,284.620 162.400,284.400 162.400 C 284.180 162.400,284.000 162.672,284.000 163.005 C 284.000 163.338,283.841 163.923,283.647 164.305 C 283.452 164.687,283.047 165.540,282.747 166.200 C 282.446 166.860,281.998 167.615,281.751 167.878 C 281.504 168.141,281.059 169.176,280.763 170.178 C 280.467 171.180,280.085 172.000,279.913 172.000 C 279.741 172.000,279.600 172.450,279.600 173.000 C 279.600 173.550,279.420 174.000,279.200 174.000 C 278.980 174.000,278.800 174.529,278.800 175.176 C 278.800 175.823,278.620 176.464,278.400 176.600 C 278.180 176.736,278.000 177.722,278.000 178.790 C 278.000 179.942,277.805 180.798,277.522 180.893 C 277.259 180.980,276.905 182.120,276.735 183.426 C 276.215 187.430,275.927 188.798,275.556 189.027 C 275.360 189.148,275.200 189.777,275.200 190.424 C 275.200 191.071,275.020 191.600,274.800 191.600 C 274.580 191.600,274.400 191.851,274.400 192.157 C 274.400 192.464,274.130 192.818,273.800 192.945 C 273.470 193.071,273.200 193.451,273.200 193.787 C 273.200 194.124,273.020 194.400,272.800 194.400 C 272.580 194.400,272.400 194.678,272.400 195.018 C 272.400 195.358,271.995 196.064,271.500 196.587 C 269.393 198.812,268.800 199.533,268.800 199.868 C 268.800 200.063,268.440 200.483,268.000 200.800 C 267.560 201.117,267.200 201.563,267.200 201.791 C 267.200 202.018,266.696 202.428,266.080 202.700 C 264.719 203.303,262.000 205.737,262.000 206.354 C 262.000 206.599,261.730 206.800,261.400 206.800 C 261.070 206.800,260.800 206.980,260.800 207.200 C 260.800 207.420,260.514 207.600,260.164 207.600 C 259.815 207.600,258.741 208.410,257.779 209.400 C 256.817 210.390,255.841 211.200,255.611 211.200 C 255.381 211.200,254.628 211.740,253.937 212.400 C 253.246 213.060,252.528 213.600,252.341 213.600 C 252.153 213.600,252.000 213.793,252.000 214.029 C 252.000 214.482,251.020 215.600,250.623 215.600 C 250.177 215.600,247.610 217.401,247.605 217.718 C 247.599 218.087,245.751 220.000,245.400 220.000 C 245.086 220.000,243.200 221.895,243.200 222.210 C 243.200 222.695,242.046 223.600,241.429 223.600 C 241.083 223.600,240.800 223.780,240.800 224.000 C 240.800 224.220,240.530 224.400,240.200 224.400 C 239.870 224.400,239.600 224.535,239.600 224.700 C 239.599 225.266,237.800 227.005,236.600 227.600 C 235.940 227.927,235.109 228.511,234.753 228.897 C 234.397 229.284,233.807 229.600,233.441 229.600 C 233.074 229.600,232.671 229.870,232.545 230.200 C 232.418 230.530,232.098 230.800,231.833 230.800 C 231.568 230.800,231.002 231.125,230.575 231.522 C 230.149 231.920,229.215 232.503,228.500 232.820 C 227.785 233.136,227.200 233.621,227.200 233.898 C 227.200 234.174,226.750 234.400,226.200 234.400 C 225.650 234.400,225.200 234.580,225.200 234.800 C 225.200 235.020,224.875 235.200,224.477 235.200 C 224.015 235.200,223.493 235.791,223.031 236.838 C 222.348 238.388,222.234 238.464,220.954 238.238 C 220.209 238.107,218.972 237.891,218.204 237.757 C 217.137 237.571,216.750 237.665,216.561 238.157 C 216.413 238.543,215.851 238.800,215.157 238.800 C 214.521 238.800,214.000 238.980,214.000 239.200 C 214.000 239.420,213.370 239.600,212.600 239.600 C 211.830 239.600,211.200 239.780,211.200 240.000 C 211.200 240.220,210.671 240.400,210.024 240.400 C 209.377 240.400,208.736 240.580,208.600 240.800 C 208.464 241.020,207.845 241.200,207.225 241.200 C 206.605 241.200,205.874 241.470,205.600 241.800 C 205.326 242.130,204.494 242.400,203.751 242.400 C 203.008 242.400,202.400 242.580,202.400 242.800 C 202.400 243.020,201.590 243.200,200.600 243.200 C 199.610 243.200,198.800 243.380,198.800 243.600 C 198.800 243.820,198.361 244.000,197.824 244.000 C 197.287 244.000,196.736 244.180,196.600 244.400 C 196.464 244.620,195.913 244.800,195.376 244.800 C 194.839 244.800,194.400 244.980,194.400 245.200 C 194.400 245.420,194.034 245.600,193.587 245.600 C 193.141 245.600,192.671 245.870,192.545 246.200 C 192.413 246.542,191.817 246.800,191.157 246.800 C 190.521 246.800,190.000 246.980,190.000 247.200 C 190.000 247.420,189.550 247.600,189.000 247.600 C 188.450 247.600,188.000 247.780,188.000 248.000 C 188.000 248.220,187.640 248.400,187.200 248.400 C 186.760 248.400,186.400 248.580,186.400 248.800 C 186.400 249.020,185.950 249.200,185.400 249.200 C 184.778 249.200,184.400 249.427,184.400 249.800 C 184.400 250.200,184.000 250.400,183.200 250.400 C 182.540 250.400,182.000 250.580,182.000 250.800 C 182.000 251.020,181.561 251.200,181.024 251.200 C 180.487 251.200,179.936 251.380,179.800 251.600 C 179.664 251.820,179.124 252.000,178.600 252.000 C 178.076 252.000,177.536 252.180,177.400 252.400 C 177.264 252.620,176.803 252.800,176.376 252.800 C 175.949 252.800,175.600 252.980,175.600 253.200 C 175.600 253.420,174.983 253.600,174.229 253.600 C 173.474 253.600,172.587 253.870,172.257 254.200 C 171.867 254.590,170.876 254.800,169.429 254.800 C 168.203 254.800,167.200 254.980,167.200 255.200 C 167.200 255.420,166.401 255.600,165.424 255.600 C 164.447 255.600,163.536 255.780,163.400 256.000 C 163.264 256.220,162.801 256.400,162.371 256.400 C 161.941 256.400,161.232 256.580,160.795 256.800 C 160.358 257.020,159.642 257.380,159.205 257.600 C 158.768 257.820,158.133 258.000,157.793 258.000 C 157.453 258.000,157.071 258.270,156.945 258.600 C 156.818 258.930,156.371 259.200,155.952 259.200 C 155.532 259.200,154.877 259.360,154.495 259.556 C 154.113 259.752,152.945 260.320,151.900 260.819 C 150.855 261.318,150.000 261.967,150.000 262.263 C 150.000 262.558,149.730 262.800,149.400 262.800 C 149.070 262.800,148.800 262.980,148.800 263.200 C 148.800 263.420,148.568 263.600,148.284 263.600 C 147.480 263.600,144.119 266.863,144.700 267.080 C 144.975 267.183,145.200 267.770,145.200 268.385 C 145.200 269.089,145.522 269.716,146.070 270.080 C 147.510 271.036,146.747 271.853,143.955 272.345 C 141.860 272.714,141.341 272.689,140.793 272.193 C 140.041 271.513,139.200 271.411,139.200 272.000 C 139.200 272.220,138.874 272.400,138.475 272.400 C 138.077 272.400,137.364 272.760,136.892 273.200 C 136.420 273.640,135.871 274.000,135.673 274.000 C 135.474 274.000,134.974 274.450,134.561 275.000 C 134.148 275.550,133.443 276.000,132.993 276.000 C 132.544 276.000,131.917 276.360,131.600 276.800 C 131.283 277.240,130.728 277.600,130.368 277.600 C 130.007 277.600,129.374 278.050,128.961 278.600 C 128.548 279.150,127.893 279.600,127.505 279.600 C 127.117 279.600,126.800 279.746,126.800 279.925 C 126.800 280.104,126.170 280.498,125.400 280.800 C 124.630 281.102,124.000 281.496,124.000 281.675 C 124.000 281.854,123.724 282.000,123.387 282.000 C 123.051 282.000,122.671 282.270,122.545 282.600 C 122.418 282.930,122.064 283.200,121.757 283.200 C 121.451 283.200,121.200 283.380,121.200 283.600 C 121.200 283.820,120.840 284.000,120.400 284.000 C 119.960 284.000,119.596 284.135,119.591 284.300 C 119.586 284.465,118.777 285.140,117.792 285.800 C 116.807 286.460,116.001 287.135,116.001 287.300 C 116.000 287.465,115.640 287.600,115.200 287.600 C 114.760 287.600,114.400 287.780,114.400 288.000 C 114.400 288.220,114.212 288.400,113.982 288.400 C 113.542 288.400,111.600 290.194,111.600 290.600 C 111.600 290.914,109.705 292.800,109.390 292.800 C 109.069 292.800,108.000 293.869,108.000 294.190 C 108.000 294.492,106.120 296.400,105.821 296.400 C 105.577 296.400,103.932 297.761,102.559 299.100 C 102.052 299.595,101.403 300.000,101.118 300.000 C 100.441 300.001,98.400 301.763,98.400 302.347 C 98.400 302.596,97.990 302.800,97.488 302.800 C 96.987 302.800,96.317 303.160,96.000 303.600 C 95.683 304.040,95.202 304.400,94.932 304.400 C 94.221 304.400,89.200 309.476,89.200 310.195 C 89.200 310.528,89.020 310.800,88.800 310.800 C 88.580 310.800,88.396 311.025,88.391 311.300 C 88.386 311.575,88.030 312.250,87.600 312.800 C 87.170 313.350,86.814 314.115,86.809 314.500 C 86.804 314.885,86.620 315.200,86.400 315.200 C 86.180 315.200,86.000 315.541,86.000 315.957 C 86.000 316.374,85.730 316.818,85.400 316.945 C 85.070 317.071,84.800 317.541,84.800 317.987 C 84.800 318.434,84.620 318.800,84.400 318.800 C 84.180 318.800,84.000 319.160,84.000 319.600 C 84.000 320.040,83.820 320.400,83.600 320.400 C 83.380 320.400,83.200 320.760,83.200 321.200 C 83.200 321.640,83.020 322.000,82.800 322.000 C 82.580 322.000,82.400 322.450,82.400 323.000 C 82.400 323.559,82.168 324.000,81.875 324.000 C 81.586 324.000,81.102 324.630,80.800 325.400 C 80.498 326.170,80.104 326.800,79.925 326.800 C 79.746 326.800,79.600 331.120,79.600 336.400 C 79.600 342.533,79.744 346.000,80.000 346.000 C 80.220 346.000,80.400 346.529,80.400 347.176 C 80.400 347.823,80.580 348.464,80.800 348.600 C 81.020 348.736,81.200 349.184,81.200 349.595 C 81.200 350.006,81.470 350.613,81.800 350.943 C 82.130 351.273,82.400 351.876,82.400 352.283 C 82.400 352.690,82.760 353.283,83.200 353.600 C 83.640 353.917,84.000 354.330,84.000 354.517 C 84.000 354.999,85.061 356.000,85.571 356.000 C 85.807 356.000,86.000 356.150,86.000 356.332 C 86.000 356.515,86.493 356.920,87.096 357.232 C 88.394 357.905,90.400 359.854,90.400 360.442 C 90.400 361.068,91.460 362.000,92.171 362.000 C 92.517 362.000,92.800 362.180,92.800 362.400 C 92.800 362.620,93.070 362.800,93.400 362.800 C 93.730 362.800,94.000 363.070,94.000 363.400 C 94.000 363.730,94.150 364.000,94.332 364.000 C 94.515 364.000,94.920 364.495,95.232 365.100 C 95.545 365.705,96.745 367.137,97.900 368.283 C 99.055 369.428,100.000 370.538,100.000 370.750 C 100.000 371.326,101.355 373.595,101.700 373.597 C 101.865 373.599,102.000 373.949,102.000 374.376 C 102.000 374.803,102.180 375.264,102.400 375.400 C 102.620 375.536,102.800 375.997,102.800 376.424 C 102.800 376.851,102.980 377.200,103.200 377.200 C 103.420 377.200,103.600 377.472,103.600 377.805 C 103.600 378.138,103.769 378.723,103.976 379.105 C 104.183 379.487,104.668 380.565,105.053 381.500 C 105.439 382.435,105.899 383.200,106.077 383.200 C 106.255 383.200,106.400 383.470,106.400 383.800 C 106.400 384.130,106.580 384.400,106.800 384.400 C 107.020 384.400,107.200 384.685,107.200 385.033 C 107.200 385.382,107.830 386.279,108.600 387.026 C 109.370 387.774,110.000 388.542,110.000 388.734 C 110.000 388.925,110.540 389.646,111.200 390.337 C 111.860 391.028,112.400 391.683,112.400 391.793 C 112.400 391.979,113.637 393.514,114.625 394.553 C 114.858 394.799,115.307 395.585,115.622 396.300 C 115.937 397.015,116.331 397.600,116.498 397.600 C 116.664 397.600,116.800 397.966,116.800 398.413 C 116.800 398.859,117.070 399.329,117.400 399.455 C 117.730 399.582,118.000 400.026,118.000 400.443 C 118.000 400.859,118.180 401.200,118.400 401.200 C 118.620 401.200,118.800 401.560,118.800 402.000 C 118.800 402.440,118.980 402.800,119.200 402.800 C 119.420 402.800,119.600 403.250,119.600 403.800 C 119.600 404.350,119.780 404.800,120.000 404.800 C 120.220 404.800,120.400 405.239,120.400 405.776 C 120.400 406.313,120.580 406.864,120.800 407.000 C 121.020 407.136,121.200 407.674,121.200 408.195 C 121.200 408.716,121.470 409.413,121.800 409.743 C 122.130 410.073,122.400 410.896,122.400 411.571 L 122.400 412.800 135.200 412.800 L 148.000 412.800 148.000 411.424 C 148.000 410.667,147.820 409.936,147.600 409.800 C 147.075 409.475,147.075 404.000,147.600 404.000 C 147.837 404.000,148.000 402.533,148.000 400.400 C 148.000 398.267,148.163 396.800,148.400 396.800 C 148.620 396.800,148.800 395.810,148.800 394.600 C 148.800 393.390,148.980 392.400,149.200 392.400 C 149.788 392.400,149.689 390.402,149.100 390.387 C 147.659 390.351,145.909 385.195,146.728 383.397 C 146.988 382.828,147.200 382.018,147.200 381.597 C 147.200 380.683,150.180 377.620,151.132 377.554 C 151.499 377.529,152.115 377.540,152.500 377.579 C 153.084 377.638,153.200 377.314,153.200 375.625 C 153.200 374.511,153.366 373.600,153.569 373.600 C 153.772 373.600,154.149 372.961,154.407 372.179 C 154.912 370.650,158.338 366.959,160.113 366.032 C 160.711 365.720,161.200 365.315,161.200 365.132 C 161.200 364.950,161.379 364.800,161.597 364.800 C 162.001 364.800,163.380 363.719,165.041 362.100 C 165.548 361.605,166.070 361.200,166.200 361.200 C 166.514 361.200,168.400 359.305,168.400 358.990 C 168.400 358.588,169.317 357.841,170.600 357.200 C 171.903 356.549,173.600 355.030,173.600 354.516 C 173.600 354.340,174.152 353.951,174.827 353.652 C 175.502 353.353,177.670 351.510,179.646 349.555 C 181.622 347.600,183.375 346.000,183.544 346.000 C 183.712 346.000,184.198 345.685,184.625 345.300 C 185.052 344.915,186.121 344.069,187.000 343.421 C 187.880 342.772,188.891 341.917,189.247 341.521 C 189.603 341.124,190.154 340.800,190.471 340.800 C 190.789 340.800,191.436 340.440,191.908 340.000 C 192.380 339.560,193.050 339.200,193.396 339.200 C 193.742 339.200,194.129 338.930,194.255 338.600 C 194.382 338.270,194.691 338.000,194.943 337.999 C 195.194 337.999,196.030 337.459,196.800 336.800 C 197.570 336.141,198.327 335.601,198.482 335.601 C 198.637 335.600,199.214 335.150,199.764 334.600 C 200.314 334.050,201.042 333.600,201.382 333.600 C 201.722 333.600,202.000 333.420,202.000 333.200 C 202.000 332.980,202.230 332.800,202.512 332.800 C 202.793 332.800,203.283 332.440,203.600 332.000 C 203.917 331.560,204.413 331.200,204.701 331.200 C 204.989 331.200,205.329 330.930,205.455 330.600 C 205.582 330.270,205.854 330.000,206.060 330.000 C 206.265 330.000,206.820 329.640,207.292 329.200 C 207.764 328.760,208.387 328.400,208.675 328.400 C 208.964 328.400,209.200 328.220,209.200 328.000 C 209.200 327.780,209.566 327.600,210.013 327.600 C 210.459 327.600,210.929 327.330,211.055 327.000 C 211.182 326.670,211.626 326.400,212.043 326.400 C 212.459 326.400,212.800 326.220,212.800 326.000 C 212.800 325.780,213.430 325.600,214.200 325.600 C 214.970 325.600,215.600 325.420,215.600 325.200 C 215.600 324.974,216.733 324.800,218.200 324.800 C 219.667 324.800,220.800 324.626,220.800 324.400 C 220.800 324.180,221.149 324.000,221.576 324.000 C 222.003 324.000,222.464 323.820,222.600 323.600 C 222.736 323.380,223.175 323.200,223.575 323.200 C 223.975 323.200,224.526 322.930,224.800 322.600 C 225.074 322.270,225.715 322.000,226.225 322.000 C 226.735 322.000,227.264 321.820,227.400 321.600 C 227.536 321.380,228.526 321.200,229.600 321.200 C 230.674 321.200,231.664 321.020,231.800 320.800 C 231.936 320.580,232.656 320.400,233.400 320.400 C 234.144 320.400,234.864 320.220,235.000 320.000 C 235.136 319.780,235.692 319.600,236.236 319.600 C 236.780 319.600,237.329 319.330,237.455 319.000 C 237.597 318.630,238.205 318.400,239.043 318.400 C 239.789 318.400,240.400 318.220,240.400 318.000 C 240.400 317.780,241.030 317.600,241.800 317.600 C 242.570 317.600,243.200 317.420,243.200 317.200 C 243.200 316.980,243.560 316.800,244.000 316.800 C 244.440 316.800,244.800 316.620,244.800 316.400 C 244.800 316.180,245.250 316.000,245.800 316.000 C 246.350 316.000,246.800 315.820,246.800 315.600 C 246.800 315.380,247.147 315.200,247.571 315.200 C 247.996 315.200,248.613 314.930,248.943 314.600 C 249.273 314.270,249.815 314.000,250.148 314.000 C 250.481 314.000,250.864 313.820,251.000 313.600 C 251.136 313.380,251.597 313.200,252.024 313.200 C 252.451 313.200,252.800 313.020,252.800 312.800 C 252.800 312.580,253.160 312.400,253.600 312.400 C 254.040 312.400,254.400 312.220,254.400 312.000 C 254.400 311.780,254.850 311.600,255.400 311.600 C 256.022 311.600,256.400 311.373,256.400 311.000 C 256.400 310.627,256.778 310.400,257.400 310.400 C 257.950 310.400,258.400 310.220,258.400 310.000 C 258.400 309.780,258.694 309.600,259.053 309.600 C 259.412 309.600,259.997 309.267,260.353 308.859 C 260.709 308.452,261.585 307.817,262.300 307.449 C 263.015 307.081,263.600 306.625,263.600 306.435 C 263.600 306.246,264.185 305.811,264.900 305.469 C 268.169 303.903,271.106 300.982,270.457 299.942 C 269.815 298.915,270.483 297.923,271.280 298.720 C 271.885 299.325,272.400 299.337,272.400 298.747 C 272.400 298.498,272.720 298.003,273.110 297.647 C 274.107 296.739,275.200 294.944,275.200 294.214 C 275.200 293.876,275.380 293.600,275.600 293.600 C 275.820 293.600,276.004 293.375,276.010 293.100 C 276.027 292.263,278.826 288.718,279.638 288.506 C 280.057 288.396,280.400 288.148,280.400 287.953 C 280.400 287.759,280.676 287.600,281.013 287.600 C 281.349 287.600,281.729 287.330,281.855 287.000 C 281.982 286.670,282.516 286.400,283.043 286.400 C 283.569 286.400,284.000 286.220,284.000 286.000 C 284.000 285.780,284.529 285.600,285.176 285.600 C 285.823 285.600,286.464 285.420,286.600 285.200 C 286.736 284.980,287.557 284.800,288.424 284.800 C 289.291 284.800,290.000 284.639,290.000 284.442 C 290.000 284.245,290.675 283.982,291.500 283.857 C 295.280 283.286,296.075 283.069,296.274 282.553 C 296.404 282.213,297.087 282.000,298.043 282.000 C 298.899 282.000,299.600 281.820,299.600 281.600 C 299.600 281.380,300.320 281.200,301.200 281.200 C 302.080 281.200,302.800 281.020,302.800 280.800 C 302.800 280.580,303.520 280.400,304.400 280.400 C 305.280 280.400,306.000 280.220,306.000 280.000 C 306.000 279.780,306.608 279.600,307.351 279.600 C 308.094 279.600,308.926 279.330,309.200 279.000 C 309.474 278.670,310.295 278.400,311.025 278.400 C 311.755 278.400,312.464 278.220,312.600 278.000 C 312.736 277.780,313.557 277.600,314.424 277.600 C 315.291 277.600,316.000 277.420,316.000 277.200 C 316.000 276.980,316.709 276.800,317.576 276.800 C 318.443 276.800,319.264 276.620,319.400 276.400 C 319.536 276.180,320.166 276.000,320.800 276.000 C 321.434 276.000,322.064 275.820,322.200 275.600 C 322.336 275.380,322.977 275.200,323.624 275.200 C 324.403 275.200,324.800 274.997,324.800 274.600 C 324.800 274.156,325.267 274.000,326.600 274.000 C 327.590 274.000,328.400 273.820,328.400 273.600 C 328.400 273.380,329.199 273.200,330.176 273.200 C 331.153 273.200,332.064 273.020,332.200 272.800 C 332.336 272.580,333.157 272.400,334.024 272.400 C 334.891 272.400,335.600 272.220,335.600 272.000 C 335.600 271.774,336.738 271.600,338.213 271.600 C 340.166 271.600,340.883 271.449,341.055 271.000 C 341.231 270.542,341.983 270.400,344.243 270.400 C 345.948 270.400,347.200 270.231,347.200 270.000 C 347.200 269.780,347.639 269.600,348.176 269.600 C 348.713 269.600,349.264 269.420,349.400 269.200 C 349.536 268.980,350.087 268.800,350.624 268.800 C 351.161 268.800,351.600 268.620,351.600 268.400 C 351.600 268.180,351.842 268.000,352.139 268.000 C 352.941 268.000,355.200 266.798,355.200 266.371 C 355.200 266.167,355.467 266.000,355.793 266.000 C 357.116 266.000,358.732 263.925,358.323 262.752 C 357.677 260.898,360.552 257.890,362.059 258.845 C 362.788 259.307,363.200 259.286,363.200 258.787 C 363.200 258.560,364.505 257.074,366.100 255.484 C 367.695 253.895,369.714 251.696,370.586 250.597 C 371.458 249.499,372.538 248.288,372.986 247.907 C 373.434 247.526,374.017 247.031,374.283 246.807 C 374.549 246.583,374.864 246.400,374.983 246.400 C 375.102 246.400,375.941 245.680,376.848 244.800 C 377.755 243.920,378.647 243.200,378.830 243.200 C 379.014 243.200,379.614 242.750,380.164 242.200 C 380.714 241.650,381.442 241.200,381.782 241.200 C 382.122 241.200,382.400 241.020,382.400 240.800 C 382.400 240.580,382.670 240.400,383.000 240.400 C 383.330 240.400,383.600 240.220,383.600 240.000 C 383.600 239.780,383.876 239.600,384.213 239.600 C 384.549 239.600,384.929 239.330,385.055 239.000 C 385.182 238.670,385.536 238.400,385.843 238.400 C 386.149 238.400,386.400 238.220,386.400 238.000 C 386.400 237.780,386.688 237.600,387.040 237.600 C 387.391 237.600,388.183 237.060,388.800 236.400 C 389.417 235.740,390.098 235.200,390.314 235.200 C 390.531 235.200,390.978 234.795,391.308 234.300 C 392.326 232.773,393.472 231.600,393.947 231.600 C 394.196 231.600,394.400 231.370,394.400 231.088 C 394.400 230.807,394.760 230.317,395.200 230.000 C 395.640 229.683,396.000 229.103,396.000 228.712 C 396.000 228.320,396.180 228.000,396.400 228.000 C 396.620 228.000,396.800 227.730,396.800 227.400 C 396.800 227.070,396.980 226.800,397.200 226.800 C 397.420 226.800,397.600 226.459,397.600 226.043 C 397.600 225.626,397.870 225.182,398.200 225.055 C 398.546 224.923,398.800 224.325,398.800 223.646 C 398.800 222.997,399.025 222.392,399.300 222.300 C 399.694 222.168,399.800 215.990,399.800 193.200 C 399.800 170.409,399.694 164.231,399.300 164.100 C 398.917 163.972,398.800 161.502,398.800 153.554 C 398.800 144.697,398.712 143.141,398.200 142.945 C 397.862 142.815,397.600 142.219,397.600 141.581 C 397.600 140.957,397.420 140.336,397.200 140.200 C 396.980 140.064,396.800 139.423,396.800 138.776 C 396.800 138.129,396.620 137.600,396.400 137.600 C 396.180 137.600,396.000 136.970,396.000 136.200 C 396.000 135.430,395.820 134.800,395.600 134.800 C 395.374 134.800,395.200 133.667,395.200 132.200 C 395.200 130.733,395.026 129.600,394.800 129.600 C 394.549 129.600,394.400 127.025,394.400 122.676 C 394.400 117.208,394.277 115.590,393.813 114.976 C 393.490 114.549,393.220 113.525,393.213 112.700 C 393.206 111.875,393.020 111.200,392.800 111.200 C 392.580 111.200,392.400 110.880,392.400 110.488 C 392.400 110.097,392.040 109.517,391.600 109.200 C 391.160 108.883,390.800 108.303,390.800 107.912 C 390.800 107.520,390.530 107.200,390.200 107.200 C 389.867 107.200,389.600 106.844,389.600 106.400 C 389.600 105.960,389.420 105.600,389.200 105.600 C 388.980 105.600,388.800 105.330,388.800 105.000 C 388.800 104.670,388.620 104.400,388.400 104.400 C 388.180 104.400,388.000 104.040,388.000 103.600 C 388.000 103.160,387.820 102.800,387.600 102.800 C 387.380 102.800,387.200 102.558,387.200 102.261 C 387.200 101.459,385.998 99.200,385.571 99.200 C 385.367 99.200,385.200 98.750,385.200 98.200 C 385.200 97.650,385.020 97.200,384.800 97.200 C 384.580 97.200,384.400 96.840,384.400 96.400 C 384.400 95.960,384.220 95.600,384.000 95.600 C 383.780 95.600,383.600 95.071,383.600 94.424 C 383.600 93.777,383.420 93.136,383.200 93.000 C 382.980 92.864,382.800 92.403,382.800 91.976 C 382.800 91.549,382.530 91.200,382.200 91.200 C 381.827 91.200,381.600 90.822,381.600 90.200 C 381.600 89.650,381.420 89.200,381.200 89.200 C 380.980 89.200,380.800 88.840,380.800 88.400 C 380.800 87.960,380.620 87.600,380.400 87.600 C 380.180 87.600,380.000 87.240,380.000 86.800 C 380.000 86.360,379.820 86.000,379.600 86.000 C 379.380 86.000,379.200 85.730,379.200 85.400 C 379.200 85.070,379.020 84.800,378.800 84.800 C 378.580 84.800,378.400 84.555,378.400 84.256 C 378.400 83.957,377.950 83.374,377.400 82.961 C 376.850 82.548,376.400 81.885,376.400 81.488 C 376.400 81.091,376.040 80.380,375.600 79.908 C 375.160 79.436,374.800 78.813,374.800 78.525 C 374.800 78.236,374.530 78.000,374.200 78.000 C 373.870 78.000,373.600 77.770,373.600 77.488 C 373.600 77.207,373.240 76.717,372.800 76.400 C 372.360 76.083,372.000 75.573,372.000 75.268 C 372.000 74.565,365.408 68.000,364.702 68.000 C 364.413 68.000,363.917 67.640,363.600 67.200 C 363.283 66.760,362.613 66.400,362.112 66.400 C 361.610 66.400,361.200 66.233,361.200 66.029 C 361.200 65.503,358.856 64.400,357.739 64.400 C 357.222 64.400,356.800 64.220,356.800 64.000 C 356.800 63.780,356.440 63.600,356.000 63.600 C 355.560 63.600,355.200 63.420,355.200 63.200 C 355.200 62.980,354.750 62.800,354.200 62.800 C 353.650 62.800,353.200 62.620,353.200 62.400 C 353.200 62.180,352.859 62.000,352.443 62.000 C 352.026 62.000,351.582 61.730,351.455 61.400 C 351.329 61.070,350.859 60.800,350.413 60.800 C 349.966 60.800,349.600 60.620,349.600 60.400 C 349.600 60.180,349.240 60.000,348.800 60.000 C 348.360 60.000,348.000 59.854,348.000 59.675 C 348.000 59.496,347.370 59.102,346.600 58.800 C 345.830 58.498,345.200 58.014,345.200 57.725 C 345.200 57.436,344.964 57.200,344.675 57.200 C 344.387 57.200,343.764 56.840,343.292 56.400 C 342.820 55.960,342.191 55.600,341.894 55.600 C 341.597 55.600,340.485 54.790,339.422 53.800 C 338.359 52.810,337.326 52.000,337.126 52.000 C 336.625 52.000,334.800 50.131,334.800 49.618 C 334.800 49.388,334.615 49.200,334.389 49.200 C 333.871 49.200,330.400 45.753,330.400 45.238 C 330.400 44.762,324.455 38.800,323.981 38.800 C 323.791 38.800,322.622 37.810,321.382 36.600 C 320.143 35.390,318.785 34.400,318.365 34.400 C 317.944 34.400,317.600 34.145,317.600 33.834 C 317.600 33.522,317.060 33.028,316.400 32.736 C 315.740 32.444,315.200 32.069,315.200 31.902 C 315.200 31.736,314.786 31.600,314.280 31.600 C 313.774 31.600,313.118 31.375,312.821 31.100 C 312.525 30.825,312.378 30.780,312.494 31.000 C 313.434 32.775,309.034 34.177,307.200 32.687 C 306.046 31.750,305.395 30.020,305.896 29.218 C 306.420 28.379,306.183 28.000,305.133 28.000 C 304.730 28.000,304.400 27.820,304.400 27.600 C 304.400 27.380,303.770 27.200,303.000 27.200 C 302.230 27.200,301.600 27.020,301.600 26.800 C 301.600 26.580,301.079 26.400,300.443 26.400 C 299.806 26.400,299.197 26.168,299.088 25.885 C 298.979 25.601,297.970 25.119,296.845 24.812 C 295.720 24.506,294.800 24.108,294.800 23.928 C 294.800 23.747,294.350 23.600,293.800 23.600 C 293.250 23.600,292.800 23.420,292.800 23.200 C 292.800 22.980,292.260 22.800,291.600 22.800 C 290.940 22.800,290.400 22.620,290.400 22.400 C 290.400 22.180,290.027 22.000,289.571 22.000 C 289.116 22.000,288.473 21.730,288.143 21.400 C 287.813 21.070,287.106 20.800,286.571 20.800 C 286.037 20.800,285.600 20.620,285.600 20.400 C 285.600 20.180,285.161 20.000,284.624 20.000 C 284.087 20.000,283.536 19.820,283.400 19.600 C 283.264 19.380,282.713 19.200,282.176 19.200 C 281.639 19.200,281.200 19.020,281.200 18.800 C 281.200 18.580,280.772 18.400,280.249 18.400 C 279.726 18.400,279.074 18.130,278.800 17.800 C 278.526 17.470,277.885 17.200,277.375 17.200 C 276.865 17.200,276.336 17.020,276.200 16.800 C 276.064 16.580,275.434 16.400,274.800 16.400 C 274.166 16.400,273.536 16.220,273.400 16.000 C 273.264 15.780,272.803 15.600,272.376 15.600 C 271.949 15.600,271.600 15.420,271.600 15.200 C 271.600 14.980,271.071 14.800,270.424 14.800 C 269.777 14.800,269.136 14.620,269.000 14.400 C 268.864 14.180,268.423 14.000,268.019 14.000 C 267.616 14.000,267.182 13.730,267.055 13.400 C 266.921 13.049,266.321 12.800,265.613 12.800 C 264.946 12.800,264.400 12.620,264.400 12.400 C 264.400 12.180,263.770 12.000,263.000 12.000 C 262.230 12.000,261.600 11.820,261.600 11.600 C 261.600 11.380,260.891 11.200,260.024 11.200 C 259.157 11.200,258.336 11.020,258.200 10.800 C 258.064 10.580,256.633 10.400,255.019 10.400 C 252.781 10.400,252.031 10.258,251.855 9.800 C 251.679 9.341,250.924 9.200,248.636 9.200 C 246.992 9.200,245.536 9.020,245.400 8.800 C 245.264 8.580,243.903 8.400,242.376 8.400 C 240.792 8.400,239.600 8.228,239.600 8.000 C 239.600 7.780,238.610 7.600,237.400 7.600 C 236.190 7.600,235.200 7.420,235.200 7.200 C 235.200 6.980,234.851 6.800,234.424 6.800 C 233.997 6.800,233.536 6.620,233.400 6.400 C 233.264 6.180,232.823 6.000,232.419 6.000 C 232.016 6.000,231.582 5.730,231.455 5.400 C 231.321 5.049,230.721 4.800,230.013 4.800 C 229.346 4.800,228.800 4.639,228.800 4.442 C 228.800 4.094,227.396 3.803,223.500 3.346 C 222.455 3.223,221.600 2.960,221.600 2.761 C 221.600 2.563,220.899 2.400,220.043 2.400 C 219.028 2.400,218.405 2.191,218.255 1.800 C 218.126 1.462,217.530 1.200,216.893 1.200 C 216.270 1.200,215.535 0.975,215.260 0.700 C 214.780 0.219,168.583 -0.122,159.300 0.287 M151.600 381.800 C 151.600 382.570,151.780 383.200,152.000 383.200 C 152.220 383.200,152.400 382.570,152.400 381.800 C 152.400 381.030,152.220 380.400,152.000 380.400 C 151.780 380.400,151.600 381.030,151.600 381.800 M146.818 433.794 C 146.058 434.069,145.368 434.497,145.284 434.747 C 145.201 434.996,144.788 435.200,144.367 435.200 C 143.295 435.200,143.405 435.917,144.500 436.072 C 144.995 436.142,145.400 436.470,145.400 436.800 C 145.400 437.527,142.909 437.869,142.269 437.229 C 141.727 436.687,139.200 436.663,139.200 437.200 C 139.200 437.420,138.851 437.600,138.424 437.600 C 137.997 437.600,137.536 437.780,137.400 438.000 C 137.264 438.220,136.816 438.400,136.405 438.400 C 135.994 438.400,135.387 438.670,135.057 439.000 C 134.727 439.330,134.005 439.600,133.452 439.600 C 132.899 439.600,132.336 439.780,132.200 440.000 C 132.064 440.220,131.434 440.400,130.800 440.400 C 130.166 440.400,129.536 440.580,129.400 440.800 C 129.264 441.020,127.633 441.200,125.776 441.200 L 122.400 441.200 122.400 444.757 C 122.400 447.550,122.271 448.364,121.800 448.545 C 121.453 448.678,121.200 449.276,121.200 449.964 C 121.200 450.618,121.020 451.264,120.800 451.400 C 120.580 451.536,120.400 452.087,120.400 452.624 C 120.400 453.161,120.220 453.600,120.000 453.600 C 119.780 453.600,119.600 454.050,119.600 454.600 C 119.600 455.150,119.420 455.600,119.200 455.600 C 118.980 455.600,118.800 456.320,118.800 457.200 C 118.800 458.080,118.989 458.800,119.219 458.800 C 121.094 458.800,122.470 467.290,120.857 468.903 C 120.606 469.154,120.400 469.594,120.400 469.880 C 120.400 470.166,120.220 470.400,120.000 470.400 C 119.780 470.400,119.600 470.593,119.600 470.829 C 119.600 472.789,109.300 473.267,107.287 471.400 C 106.693 470.850,105.981 470.400,105.704 470.400 C 105.427 470.400,105.200 470.220,105.200 470.000 C 105.200 469.778,104.141 469.600,102.824 469.600 C 101.517 469.600,100.336 469.780,100.200 470.000 C 100.064 470.220,99.623 470.400,99.219 470.400 C 98.816 470.400,98.382 470.670,98.255 471.000 C 98.121 471.351,97.521 471.600,96.813 471.600 C 96.146 471.600,95.600 471.780,95.600 472.000 C 95.600 472.220,95.060 472.400,94.400 472.400 C 93.740 472.400,93.200 472.580,93.200 472.800 C 93.200 473.020,92.750 473.200,92.200 473.200 C 91.650 473.200,91.200 473.380,91.200 473.600 C 91.200 473.820,90.654 474.000,89.987 474.000 C 89.279 474.000,88.679 474.249,88.545 474.600 C 88.395 474.991,87.772 475.200,86.757 475.200 C 85.901 475.200,85.200 475.380,85.200 475.600 C 85.200 475.842,83.475 476.000,80.824 476.000 C 78.337 476.000,76.340 476.173,76.200 476.400 C 76.064 476.620,74.433 476.800,72.576 476.800 C 70.592 476.800,69.200 476.965,69.200 477.200 C 69.200 477.420,68.570 477.600,67.800 477.600 C 67.030 477.600,66.400 477.760,66.400 477.957 C 66.400 478.153,65.950 478.426,65.400 478.564 C 64.850 478.702,64.400 478.992,64.400 479.208 C 64.400 479.423,64.106 479.600,63.747 479.600 C 63.388 479.600,62.803 479.929,62.447 480.330 C 62.091 480.732,61.215 481.316,60.500 481.628 C 59.785 481.940,59.200 482.357,59.200 482.554 C 59.200 483.086,57.901 483.973,57.100 483.987 C 56.715 483.994,56.400 484.180,56.400 484.400 C 56.400 484.620,56.040 484.800,55.600 484.800 C 55.160 484.800,54.800 484.980,54.800 485.200 C 54.800 485.420,54.508 485.600,54.152 485.600 C 53.796 485.600,52.728 486.410,51.779 487.400 C 50.831 488.390,49.834 489.200,49.565 489.200 C 49.042 489.200,46.290 491.154,46.067 491.683 C 45.993 491.858,45.774 492.000,45.580 492.000 C 45.014 492.000,42.400 494.545,42.400 495.097 C 42.400 495.374,42.159 495.600,41.864 495.600 C 40.734 495.600,40.400 497.613,40.400 504.419 C 40.400 508.673,40.549 511.200,40.800 511.200 C 41.020 511.200,41.200 511.746,41.200 512.413 C 41.200 513.121,41.449 513.721,41.800 513.855 C 42.142 513.987,42.400 514.583,42.400 515.243 C 42.400 515.879,42.536 516.400,42.702 516.400 C 42.869 516.400,43.259 516.985,43.570 517.700 C 43.881 518.415,44.555 519.396,45.068 519.881 C 45.580 520.365,46.000 521.001,46.000 521.293 C 46.000 521.585,46.360 522.083,46.800 522.400 C 47.240 522.717,47.600 523.119,47.600 523.294 C 47.600 523.940,49.417 526.390,49.900 526.395 C 50.175 526.398,50.400 526.726,50.400 527.125 C 50.400 527.523,50.760 528.236,51.200 528.708 C 51.640 529.180,52.000 529.844,52.000 530.183 C 52.000 530.522,52.180 530.800,52.400 530.800 C 52.620 530.800,52.800 531.166,52.800 531.613 C 52.800 532.059,53.070 532.529,53.400 532.655 C 53.730 532.782,54.000 533.187,54.000 533.554 C 54.000 533.922,54.360 534.483,54.800 534.800 C 55.240 535.117,55.600 535.525,55.600 535.706 C 55.600 536.183,57.487 538.000,57.982 538.000 C 58.212 538.000,58.400 538.180,58.400 538.400 C 58.400 539.096,60.240 538.833,61.200 538.000 C 64.373 535.248,69.284 539.374,67.457 543.257 C 67.155 543.898,68.975 545.200,70.173 545.200 C 70.421 545.200,70.883 545.560,71.200 546.000 C 71.517 546.440,72.075 546.800,72.439 546.800 C 72.804 546.800,73.326 547.070,73.600 547.400 C 73.874 547.730,74.346 548.000,74.649 548.000 C 74.952 548.000,75.200 548.180,75.200 548.400 C 75.200 548.620,75.560 548.800,76.000 548.800 C 76.440 548.800,76.800 548.980,76.800 549.200 C 76.800 549.420,77.070 549.600,77.400 549.600 C 77.730 549.600,78.000 549.780,78.000 550.000 C 78.000 550.220,78.360 550.400,78.800 550.400 C 79.240 550.400,79.600 550.580,79.600 550.800 C 79.600 551.020,79.851 551.200,80.157 551.200 C 80.464 551.200,80.818 551.470,80.945 551.800 C 81.071 552.130,81.451 552.400,81.787 552.400 C 82.124 552.400,82.400 552.580,82.400 552.800 C 82.400 553.020,82.636 553.200,82.925 553.200 C 83.213 553.200,83.836 553.560,84.308 554.000 C 84.780 554.440,85.354 554.800,85.583 554.800 C 85.812 554.800,86.000 554.945,86.000 555.122 C 86.000 555.299,86.585 556.093,87.300 556.886 C 88.015 557.679,88.960 558.829,89.400 559.442 C 90.321 560.723,96.648 567.200,96.979 567.200 C 97.101 567.200,97.533 567.515,97.940 567.900 C 99.309 569.196,100.407 570.000,100.805 570.000 C 101.022 570.000,101.200 570.180,101.200 570.400 C 101.200 570.620,101.560 570.800,102.000 570.800 C 102.440 570.800,102.801 570.935,102.803 571.100 C 102.806 571.502,105.119 572.800,105.832 572.800 C 106.145 572.800,106.400 572.980,106.400 573.200 C 106.400 573.420,106.760 573.600,107.200 573.600 C 107.640 573.600,108.000 573.780,108.000 574.000 C 108.000 574.220,108.450 574.400,109.000 574.400 C 109.550 574.400,110.000 574.580,110.000 574.800 C 110.000 575.020,110.360 575.200,110.800 575.200 C 111.244 575.200,111.600 575.467,111.600 575.800 C 111.600 576.130,111.949 576.400,112.376 576.400 C 112.803 576.400,113.250 576.557,113.368 576.748 C 113.799 577.446,116.043 577.615,116.661 576.996 C 117.502 576.155,122.332 576.158,122.655 577.000 C 122.782 577.330,123.207 577.600,123.600 577.600 C 123.993 577.600,124.418 577.330,124.545 577.000 C 124.837 576.239,127.377 576.195,128.071 576.938 C 128.652 577.560,143.899 577.390,144.580 576.755 C 145.334 576.051,159.115 576.319,159.522 577.046 C 160.216 578.287,168.463 577.681,169.747 576.295 C 170.305 575.693,170.974 575.200,171.234 575.200 C 171.494 575.200,171.997 574.884,172.353 574.497 C 172.709 574.111,173.540 573.526,174.200 573.197 C 175.650 572.476,176.400 571.804,176.400 571.229 C 176.400 570.993,176.760 570.800,177.200 570.800 C 177.640 570.800,178.000 570.620,178.000 570.400 C 178.000 570.180,178.230 570.000,178.512 570.000 C 178.793 570.000,179.283 569.640,179.600 569.200 C 179.917 568.760,180.497 568.400,180.888 568.400 C 181.280 568.400,181.600 568.130,181.600 567.800 C 181.600 567.470,181.870 567.200,182.200 567.200 C 182.530 567.200,182.800 567.020,182.800 566.800 C 182.800 566.580,183.120 566.400,183.512 566.400 C 183.903 566.400,184.483 566.040,184.800 565.600 C 185.117 565.160,185.652 564.794,185.988 564.787 C 186.780 564.771,188.000 563.842,188.000 563.256 C 188.000 563.005,188.360 562.800,188.800 562.800 C 189.240 562.800,189.600 562.620,189.600 562.400 C 189.600 562.180,189.960 562.000,190.400 562.000 C 190.840 562.000,191.200 561.820,191.200 561.600 C 191.200 561.380,191.470 561.200,191.800 561.200 C 192.130 561.200,192.400 561.020,192.400 560.800 C 192.400 560.580,192.676 560.400,193.013 560.400 C 193.349 560.400,193.729 560.130,193.855 559.800 C 193.982 559.470,194.336 559.200,194.643 559.200 C 194.949 559.200,195.200 559.020,195.200 558.800 C 195.200 558.580,195.560 558.400,196.000 558.400 C 196.440 558.400,196.800 558.220,196.800 558.000 C 196.800 557.780,197.160 557.600,197.600 557.600 C 198.040 557.600,198.400 557.420,198.400 557.200 C 198.400 556.980,198.593 556.800,198.829 556.800 C 199.064 556.800,199.508 556.575,199.815 556.300 C 201.138 555.113,201.591 554.800,201.983 554.800 C 202.212 554.800,202.400 554.620,202.400 554.400 C 202.400 554.180,202.678 554.000,203.018 554.000 C 203.358 554.000,204.070 553.595,204.599 553.100 C 206.036 551.756,206.739 551.200,207.001 551.200 C 207.356 551.200,209.200 549.283,209.200 548.914 C 209.200 548.737,209.650 548.107,210.200 547.513 C 210.750 546.920,211.200 546.157,211.200 545.817 C 211.200 545.478,211.380 545.200,211.600 545.200 C 211.820 545.200,212.000 544.750,212.000 544.200 C 212.000 543.650,212.180 543.200,212.400 543.200 C 212.620 543.200,212.800 542.840,212.800 542.400 C 212.800 541.960,212.980 541.600,213.200 541.600 C 213.420 541.600,213.600 541.172,213.600 540.649 C 213.600 540.126,213.870 539.474,214.200 539.200 C 214.530 538.926,214.800 538.195,214.800 537.575 C 214.800 536.955,214.980 536.336,215.200 536.200 C 215.420 536.064,215.600 535.243,215.600 534.376 C 215.600 533.509,215.780 532.800,216.000 532.800 C 216.226 532.800,216.400 531.667,216.400 530.200 C 216.400 528.733,216.226 527.600,216.000 527.600 C 215.742 527.600,215.600 523.275,215.600 515.424 C 215.600 507.737,215.452 503.156,215.200 503.000 C 214.980 502.864,214.800 501.408,214.800 499.764 C 214.800 497.476,214.659 496.721,214.200 496.545 C 213.870 496.418,213.600 495.974,213.600 495.557 C 213.600 495.141,213.420 494.800,213.200 494.800 C 212.980 494.800,212.800 494.614,212.800 494.387 C 212.800 493.849,210.151 491.200,209.613 491.200 C 209.386 491.200,209.200 490.996,209.200 490.747 C 209.200 490.125,207.139 488.401,206.395 488.400 C 206.062 488.400,205.452 487.950,205.039 487.400 C 204.626 486.850,204.043 486.400,203.744 486.400 C 203.445 486.400,203.200 486.220,203.200 486.000 C 203.200 485.780,202.930 485.600,202.600 485.600 C 202.270 485.600,202.000 485.420,202.000 485.200 C 202.000 484.980,201.748 484.800,201.440 484.800 C 201.132 484.800,200.250 484.170,199.480 483.400 C 198.710 482.630,197.832 482.000,197.528 482.000 C 197.225 482.000,196.717 481.640,196.400 481.200 C 196.083 480.760,195.503 480.400,195.112 480.400 C 194.720 480.400,194.400 480.220,194.400 480.000 C 194.400 479.780,193.950 479.600,193.400 479.600 C 192.778 479.600,192.400 479.373,192.400 479.000 C 192.400 478.667,192.044 478.400,191.600 478.400 C 191.160 478.400,190.800 478.220,190.800 478.000 C 190.800 477.780,190.530 477.600,190.200 477.600 C 189.870 477.600,189.600 477.420,189.600 477.200 C 189.600 476.980,189.240 476.800,188.800 476.800 C 188.360 476.800,188.000 476.620,188.000 476.400 C 188.000 476.180,187.640 476.000,187.200 476.000 C 186.760 476.000,186.400 475.820,186.400 475.600 C 186.400 475.380,186.208 475.200,185.973 475.200 C 185.739 475.200,184.957 474.750,184.236 474.200 C 183.514 473.650,182.626 473.200,182.262 473.200 C 181.898 473.200,181.600 473.020,181.600 472.800 C 181.600 472.580,181.240 472.400,180.800 472.400 C 180.360 472.400,180.000 472.220,180.000 472.000 C 180.000 471.780,179.807 471.600,179.571 471.600 C 179.336 471.600,178.873 471.330,178.543 471.000 C 177.859 470.316,176.567 470.206,176.200 470.800 C 175.870 471.334,174.516 471.311,174.178 470.765 C 174.031 470.526,174.110 470.130,174.355 469.885 C 174.976 469.264,174.910 468.800,174.200 468.800 C 173.870 468.800,173.600 468.620,173.600 468.400 C 173.600 467.823,170.831 467.907,170.271 468.500 C 170.012 468.775,169.545 469.495,169.232 470.100 C 168.920 470.705,168.346 471.200,167.956 471.200 C 167.566 471.200,167.136 471.380,167.000 471.600 C 166.690 472.102,165.408 472.117,164.495 471.629 C 164.113 471.425,163.485 471.161,163.100 471.042 C 162.655 470.904,162.398 470.419,162.394 469.713 C 162.389 468.870,162.297 468.743,162.016 469.188 C 161.811 469.512,161.583 469.692,161.508 469.588 C 160.840 468.657,160.400 465.873,160.400 462.572 C 160.399 458.696,159.590 456.400,158.225 456.400 C 157.790 456.400,156.800 455.309,156.800 454.829 C 156.800 454.593,156.620 454.400,156.400 454.400 C 156.180 454.400,156.000 453.781,156.000 453.024 C 156.000 452.267,155.820 451.536,155.600 451.400 C 155.380 451.264,155.200 450.184,155.200 449.000 C 155.200 447.816,155.020 446.736,154.800 446.600 C 154.580 446.464,154.400 445.728,154.400 444.964 C 154.400 444.098,154.174 443.488,153.800 443.345 C 153.433 443.204,153.200 442.597,153.200 441.781 C 153.200 441.047,153.020 440.336,152.800 440.200 C 152.580 440.064,152.400 439.344,152.400 438.600 C 152.400 437.856,152.220 437.136,152.000 437.000 C 151.780 436.864,151.594 436.268,151.587 435.676 C 151.560 433.341,149.894 432.684,146.818 433.794 " stroke="none" fill="#fbfbfb" fill-rule="evenodd"></path><path id="path2" d="M306.261 29.109 C 305.858 29.752,307.189 32.505,308.000 32.703 C 308.408 32.803,308.357 32.654,307.839 32.236 C 307.420 31.899,306.966 30.942,306.829 30.111 C 306.668 29.137,306.467 28.781,306.261 29.109 M68.432 30.411 C 68.391 31.193,69.508 32.800,70.092 32.800 C 70.338 32.800,70.171 32.395,69.721 31.900 C 69.270 31.405,68.803 30.730,68.682 30.400 C 68.490 29.874,68.459 29.875,68.432 30.411 M72.000 30.481 C 72.000 30.829,72.289 31.225,72.642 31.361 C 73.008 31.501,73.185 31.863,73.054 32.203 C 72.779 32.921,73.255 32.985,73.920 32.320 C 74.635 31.605,74.517 30.780,73.742 31.078 C 73.339 31.232,72.874 31.042,72.542 30.589 C 72.093 29.974,72.000 29.956,72.000 30.481 M128.584 54.426 C 128.426 54.681,128.531 55.034,128.817 55.211 C 129.103 55.387,129.351 56.159,129.369 56.926 C 129.386 57.693,129.535 58.238,129.700 58.137 C 130.170 57.849,130.049 56.703,129.421 55.500 L 128.847 54.400 131.003 54.400 L 133.158 54.400 133.317 56.500 L 133.476 58.600 133.438 56.400 L 133.400 54.200 131.135 54.081 C 129.729 54.007,128.762 54.138,128.584 54.426 M139.017 54.372 C 138.891 54.577,138.970 54.858,139.193 54.996 C 139.417 55.134,139.600 55.676,139.600 56.200 C 139.600 56.724,139.754 57.248,139.942 57.364 C 140.388 57.640,140.011 55.550,139.497 54.900 C 139.191 54.512,139.608 54.400,141.351 54.400 C 143.415 54.400,143.601 54.474,143.606 55.300 C 143.609 55.795,143.795 56.470,144.018 56.800 C 144.400 57.364,144.267 56.083,143.779 54.500 C 143.597 53.909,139.373 53.796,139.017 54.372 M104.800 55.713 C 104.470 55.981,103.933 56.560,103.607 57.000 C 103.031 57.777,103.037 57.780,103.838 57.100 C 105.024 56.094,105.139 56.189,105.306 58.300 C 105.442 60.019,105.463 59.962,105.528 57.700 C 105.568 56.325,105.555 55.206,105.500 55.213 C 105.445 55.220,105.130 55.445,104.800 55.713 M101.491 59.229 C 100.671 59.905,100.000 60.755,100.000 61.118 C 100.000 61.605,100.181 61.520,100.691 60.792 C 101.071 60.249,101.836 59.405,102.391 58.915 C 103.912 57.573,103.197 57.823,101.491 59.229 M227.300 59.865 C 226.619 60.140,226.666 60.800,227.367 60.800 C 227.678 60.800,228.037 61.025,228.163 61.300 C 228.289 61.575,228.297 61.410,228.180 60.933 C 228.029 60.321,228.178 60.010,228.683 59.879 C 229.298 59.719,229.286 59.691,228.600 59.678 C 228.160 59.670,227.575 59.754,227.300 59.865 M231.914 60.395 C 233.092 60.930,233.806 61.583,234.198 62.487 C 234.512 63.209,234.776 63.525,234.784 63.189 C 234.819 61.828,232.270 59.583,230.720 59.609 C 230.434 59.614,230.971 59.968,231.914 60.395 M229.790 61.048 C 230.147 61.404,230.538 61.596,230.659 61.474 C 231.015 61.118,230.406 60.400,229.748 60.400 C 229.225 60.400,229.231 60.488,229.790 61.048 M0.705 94.283 C 1.202 94.379,1.922 94.375,2.305 94.275 C 2.687 94.175,2.280 94.096,1.400 94.101 C 0.520 94.105,0.207 94.187,0.705 94.283 M2.515 109.800 C 2.622 110.240,2.838 110.914,2.996 111.297 C 3.206 111.807,3.030 112.096,2.342 112.372 C 1.703 112.628,1.615 112.757,2.067 112.775 C 4.060 112.850,4.358 112.178,3.161 110.310 C 2.661 109.530,2.400 109.324,2.515 109.800 M287.600 143.767 C 287.600 144.115,287.780 144.400,288.000 144.400 C 288.525 144.400,288.517 145.475,287.990 145.737 C 287.764 145.849,287.810 145.893,288.090 145.837 C 288.748 145.703,288.757 143.519,288.100 143.300 C 287.825 143.208,287.600 143.418,287.600 143.767 M287.400 150.000 C 286.861 150.232,286.796 150.355,287.200 150.378 C 287.733 150.408,287.733 150.455,287.200 150.800 C 286.687 151.131,286.702 151.189,287.300 151.194 C 287.685 151.197,288.000 150.945,288.000 150.633 C 288.000 150.322,288.225 149.976,288.500 149.865 C 288.775 149.754,288.820 149.662,288.600 149.660 C 288.380 149.658,287.840 149.811,287.400 150.000 M221.200 237.400 C 221.200 237.730,221.303 238.000,221.429 238.000 C 221.554 238.000,221.927 237.730,222.257 237.400 C 222.790 236.867,222.765 236.800,222.029 236.800 C 221.559 236.800,221.200 237.060,221.200 237.400 M361.200 259.167 C 361.200 259.405,360.952 259.600,360.649 259.600 C 360.346 259.600,359.890 259.851,359.635 260.158 C 359.243 260.630,359.377 260.645,360.504 260.258 C 361.864 259.790,362.400 259.133,361.630 258.877 C 361.394 258.798,361.200 258.928,361.200 259.167 M144.802 269.220 C 144.801 269.561,144.988 270.028,145.217 270.257 C 145.743 270.783,144.998 271.450,143.600 271.707 L 142.600 271.891 143.624 271.946 C 145.450 272.043,146.158 271.195,145.425 269.789 C 145.084 269.135,144.804 268.879,144.802 269.220 M270.492 299.275 C 270.739 300.017,271.600 300.140,271.600 299.433 C 271.600 299.085,271.315 298.800,270.967 298.800 C 270.618 298.800,270.405 299.014,270.492 299.275 M150.108 378.671 C 149.199 379.260,148.353 380.025,148.228 380.371 C 148.102 380.717,147.892 381.270,147.760 381.600 C 147.628 381.930,147.994 381.526,148.572 380.703 C 149.151 379.880,150.294 378.853,151.112 378.421 C 151.930 377.989,152.411 377.627,152.180 377.618 C 151.949 377.608,151.017 378.082,150.108 378.671 M150.709 381.763 C 150.591 382.381,150.726 382.839,151.064 382.969 C 151.478 383.128,151.547 382.915,151.349 382.089 C 150.999 380.631,150.932 380.597,150.709 381.763 M147.324 385.000 C 147.326 386.320,147.401 386.812,147.490 386.093 C 147.579 385.374,147.577 384.294,147.486 383.693 C 147.395 383.092,147.322 383.680,147.324 385.000 M147.600 387.725 C 147.600 388.313,148.898 390.000,149.346 389.994 C 149.657 389.990,149.667 389.895,149.377 389.694 C 149.144 389.532,148.649 388.955,148.277 388.411 C 147.905 387.867,147.600 387.558,147.600 387.725 M144.145 436.311 C 144.307 436.573,143.974 436.812,143.307 436.913 C 142.268 437.070,142.280 437.084,143.500 437.140 C 144.794 437.200,145.218 436.705,144.338 436.162 C 144.062 435.991,143.985 436.051,144.145 436.311 M167.780 469.969 C 167.571 470.172,166.860 470.415,166.200 470.509 C 165.245 470.645,165.348 470.692,166.700 470.740 C 167.971 470.785,168.400 470.649,168.400 470.200 C 168.400 469.502,168.299 469.465,167.780 469.969 M174.800 470.151 C 174.800 470.550,175.134 470.800,175.667 470.800 C 176.143 470.800,176.458 470.749,176.367 470.687 C 176.275 470.625,175.885 470.333,175.500 470.038 C 174.901 469.579,174.800 469.596,174.800 470.151 M61.776 538.222 C 61.026 538.823,61.030 538.830,61.874 538.422 C 64.214 537.291,66.183 538.230,67.006 540.868 C 67.303 541.821,67.559 542.312,67.573 541.960 C 67.707 538.750,64.056 536.396,61.776 538.222 M117.400 577.200 C 117.245 577.450,118.070 577.600,119.600 577.600 C 121.130 577.600,121.955 577.450,121.800 577.200 C 121.664 576.980,120.674 576.800,119.600 576.800 C 118.526 576.800,117.536 576.980,117.400 577.200 " stroke="none" fill="#8c8c8c" fill-rule="evenodd"></path><path id="path3" d="M72.114 28.200 C 72.117 29.300,72.195 29.703,72.287 29.095 C 72.379 28.486,72.377 27.586,72.282 27.095 C 72.187 26.603,72.111 27.100,72.114 28.200 M105.720 58.000 C 105.720 59.210,105.795 59.705,105.887 59.100 C 105.978 58.495,105.978 57.505,105.887 56.900 C 105.795 56.295,105.720 56.790,105.720 58.000 M2.712 95.618 C 2.614 96.287,2.647 96.906,2.787 96.992 C 2.926 97.078,3.082 96.530,3.133 95.774 C 3.247 94.073,2.955 93.964,2.712 95.618 M2.406 108.500 C 2.409 108.775,2.567 109.244,2.756 109.543 C 2.999 109.926,3.100 109.779,3.100 109.043 C 3.100 108.469,2.943 108.000,2.750 108.000 C 2.558 108.000,2.403 108.225,2.406 108.500 M145.802 270.361 C 146.008 270.721,145.859 271.114,145.385 271.461 C 144.979 271.757,144.839 272.000,145.075 272.000 C 145.933 272.000,146.576 270.812,146.004 270.283 C 145.590 269.900,145.549 269.916,145.802 270.361 M165.000 471.200 C 165.136 471.420,165.507 471.600,165.824 471.600 C 166.141 471.600,166.400 471.420,166.400 471.200 C 166.400 470.980,166.029 470.800,165.576 470.800 C 165.123 470.800,164.864 470.980,165.000 471.200 " stroke="none" fill="#9c9c9c" fill-rule="evenodd"></path><path id="path4" d="M67.495 27.500 C 67.411 27.665,67.469 28.340,67.624 29.000 C 67.901 30.180,67.906 30.175,67.953 28.700 C 67.998 27.276,67.831 26.838,67.495 27.500 M73.583 30.683 C 73.118 31.295,73.120 31.327,73.599 30.900 C 74.340 30.240,74.800 30.267,74.800 30.971 C 74.800 31.285,74.326 31.915,73.746 32.371 C 73.166 32.827,72.872 33.200,73.092 33.200 C 73.708 33.200,75.641 31.123,75.478 30.634 C 75.234 29.899,74.156 29.927,73.583 30.683 M68.025 30.830 C 67.999 31.487,69.582 33.200,70.215 33.200 C 70.415 33.200,70.165 32.911,69.660 32.557 C 69.156 32.204,68.587 31.529,68.397 31.057 C 68.166 30.485,68.042 30.409,68.025 30.830 M306.400 31.885 C 306.400 32.234,307.999 33.338,308.200 33.128 C 308.267 33.057,307.889 32.677,307.361 32.281 C 306.832 31.886,306.400 31.708,306.400 31.885 M311.423 32.633 C 310.774 33.107,310.754 33.200,311.300 33.200 C 311.659 33.200,312.071 33.008,312.216 32.773 C 312.640 32.087,312.261 32.020,311.423 32.633 M127.867 54.171 C 127.746 54.485,127.907 54.957,128.224 55.220 C 128.541 55.483,128.829 56.351,128.864 57.149 L 128.928 58.600 129.092 57.263 C 129.201 56.377,129.026 55.670,128.574 55.171 C 127.661 54.163,128.383 53.874,131.350 54.062 C 132.546 54.138,133.442 54.065,133.339 53.900 C 132.977 53.317,128.101 53.559,127.867 54.171 M138.538 54.217 C 138.408 54.557,138.413 54.947,138.551 55.084 C 138.688 55.221,138.800 55.042,138.800 54.686 C 138.800 54.173,139.321 54.009,141.300 53.896 L 143.800 53.754 141.287 53.677 C 139.342 53.617,138.721 53.739,138.538 54.217 M103.920 55.864 C 103.414 56.478,102.460 57.546,101.800 58.239 C 101.140 58.931,100.263 59.925,99.851 60.449 C 99.438 60.972,100.478 59.960,102.162 58.200 C 104.681 55.566,105.296 55.106,105.642 55.600 C 105.982 56.087,106.032 56.092,105.905 55.625 C 105.634 54.620,104.870 54.712,103.920 55.864 M230.800 59.485 C 231.350 59.582,232.475 60.196,233.300 60.849 C 234.125 61.503,234.800 61.926,234.800 61.790 C 234.800 61.005,231.869 59.186,230.714 59.254 C 229.853 59.306,229.858 59.319,230.800 59.485 M0.000 93.586 C 0.000 93.787,0.668 94.008,1.484 94.076 C 2.676 94.176,3.023 94.397,3.244 95.200 C 3.488 96.082,3.525 96.100,3.560 95.349 C 3.582 94.881,3.375 94.321,3.100 94.105 C 2.391 93.548,-0.000 93.148,0.000 93.586 M40.573 100.429 C 40.187 100.856,39.990 101.324,40.136 101.469 C 40.281 101.614,40.400 101.523,40.400 101.267 C 40.400 101.010,40.749 100.800,41.176 100.800 C 42.140 100.800,42.593 100.160,41.835 99.869 C 41.527 99.751,40.959 100.003,40.573 100.429 M3.094 109.699 C 3.214 110.195,3.548 110.874,3.836 111.209 C 4.498 111.980,4.087 112.661,2.800 112.923 C 1.929 113.101,1.950 113.119,2.960 113.063 C 4.481 112.980,5.284 111.764,4.300 111.032 C 3.915 110.746,3.600 110.227,3.600 109.880 C 3.600 109.532,3.437 109.146,3.237 109.023 C 3.038 108.900,2.973 109.204,3.094 109.699 M288.854 144.671 C 288.818 145.514,288.565 146.003,288.100 146.124 C 287.444 146.296,287.445 146.310,288.113 146.354 C 288.954 146.408,289.333 145.621,289.086 144.329 C 288.948 143.605,288.897 143.681,288.854 144.671 M287.500 149.078 C 287.115 149.177,286.800 149.425,286.800 149.629 C 286.800 150.123,287.489 150.103,287.800 149.600 C 288.164 149.012,288.714 149.113,288.930 149.808 C 289.073 150.270,289.104 150.254,289.059 149.741 C 288.994 148.994,288.553 148.807,287.500 149.078 M287.500 151.267 C 286.967 151.825,286.933 152.000,287.357 152.000 C 287.664 152.000,288.028 151.704,288.167 151.343 C 288.517 150.431,288.320 150.408,287.500 151.267 M222.420 237.376 C 222.157 237.693,221.460 238.026,220.871 238.116 C 219.833 238.275,219.837 238.282,221.004 238.340 C 221.819 238.381,222.369 238.142,222.707 237.600 C 223.287 236.671,223.116 236.538,222.420 237.376 M360.419 259.017 C 359.233 259.667,358.018 261.177,358.018 262.000 C 358.018 262.330,358.304 262.021,358.653 261.313 C 359.002 260.605,359.611 259.923,360.007 259.798 C 360.404 259.672,360.946 259.306,361.213 258.985 C 361.781 258.300,361.721 258.302,360.419 259.017 M146.176 270.318 C 146.337 270.602,146.251 271.097,145.985 271.418 C 145.631 271.845,145.625 272.000,145.964 272.000 C 146.672 272.000,146.970 270.805,146.394 270.273 C 145.997 269.905,145.948 269.915,146.176 270.318 M140.823 272.195 C 141.298 272.669,141.780 272.712,143.209 272.406 L 145.000 272.022 143.300 272.173 C 142.365 272.256,141.499 272.161,141.376 271.962 C 141.253 271.763,140.945 271.600,140.691 271.600 C 140.401 271.600,140.450 271.821,140.823 272.195 M147.821 380.224 C 147.452 380.788,147.206 381.401,147.275 381.586 C 147.344 381.771,147.711 381.310,148.092 380.562 C 148.909 378.953,148.768 378.778,147.821 380.224 M146.557 383.827 C 146.416 384.392,146.471 385.427,146.681 386.127 C 147.024 387.272,147.060 387.168,147.044 385.100 C 147.024 382.545,146.937 382.317,146.557 383.827 M147.225 387.937 C 147.211 388.232,147.560 388.931,148.000 389.491 C 148.440 390.050,148.800 390.314,148.800 390.078 C 148.800 389.841,148.607 389.528,148.372 389.383 C 148.137 389.237,147.788 388.732,147.597 388.259 C 147.407 387.787,147.239 387.642,147.225 387.937 M145.019 436.500 C 145.242 437.086,145.035 437.210,143.743 437.264 L 142.200 437.328 143.551 437.493 C 145.135 437.687,146.026 437.064,145.256 436.300 C 144.852 435.899,144.805 435.939,145.019 436.500 M119.900 459.465 C 120.175 459.576,120.406 459.967,120.413 460.333 C 120.431 461.309,121.600 462.814,121.600 461.862 C 121.600 460.953,120.431 459.191,119.854 459.232 C 119.564 459.252,119.580 459.336,119.900 459.465 M120.871 468.035 C 120.581 468.499,120.421 468.955,120.515 469.049 C 120.793 469.326,121.688 468.064,121.537 467.610 C 121.460 467.380,121.160 467.571,120.871 468.035 M162.446 470.113 C 162.421 470.504,162.715 470.923,163.100 471.042 C 163.485 471.161,164.113 471.425,164.495 471.629 C 165.377 472.100,166.530 472.105,167.020 471.639 C 167.229 471.440,167.760 471.191,168.200 471.085 C 168.731 470.958,168.574 470.877,167.733 470.846 C 167.037 470.821,166.385 471.025,166.286 471.300 C 166.141 471.700,165.935 471.700,165.258 471.300 C 164.792 471.025,164.062 470.800,163.635 470.800 C 163.208 470.800,162.776 470.485,162.676 470.100 C 162.504 469.444,162.490 469.445,162.446 470.113 M174.178 470.035 C 173.793 470.659,174.585 471.309,175.458 471.084 C 176.044 470.933,176.001 470.883,175.257 470.846 C 174.593 470.814,174.382 470.623,174.545 470.200 C 174.811 469.505,174.573 469.397,174.178 470.035 M61.683 537.540 C 61.394 537.724,62.112 537.790,63.310 537.691 C 65.327 537.524,65.520 537.589,66.528 538.787 C 67.118 539.488,67.600 539.922,67.600 539.753 C 67.600 538.047,63.375 536.467,61.683 537.540 M61.900 539.876 C 60.942 540.126,61.015 540.800,62.000 540.800 C 62.444 540.800,62.800 540.533,62.800 540.200 C 62.800 539.870,62.755 539.621,62.700 539.646 C 62.645 539.672,62.285 539.775,61.900 539.876 M116.812 576.775 C 116.488 576.985,116.378 577.301,116.566 577.478 C 116.755 577.655,116.990 577.575,117.088 577.300 C 117.308 576.684,122.236 576.603,122.537 577.210 C 122.649 577.435,122.694 577.390,122.638 577.110 C 122.513 576.486,117.686 576.208,116.812 576.775 M124.584 576.827 C 124.439 577.061,124.428 577.361,124.560 577.493 C 124.692 577.625,124.800 577.523,124.800 577.267 C 124.800 576.651,127.302 576.662,127.920 577.280 C 128.241 577.601,128.400 577.615,128.400 577.323 C 128.400 576.425,125.097 575.995,124.584 576.827 " stroke="none" fill="#c4c4c4" fill-rule="evenodd"></path></g></svg>